[Header]
FileType HTR
DataType HTRS
FileVersion 1
NumSegments 64
NumFrames 4
DataFrameRate 30
EulerRotationOrder ZYX
CalibrationUnits mm
RotationUnits Degrees
GlobalAxisofGravity Y
BoneLengthAxis Y
ScaleFactor 1.0
[SegmentNames&Hierarchy]
Hips	GLOBAL
Spine	Hips
Spine1	Spine
Spine2	Spine1
Neck	Spine2
Head	Neck
LeftEye	Head
RightEye	Head
LeftShoulder	Spine2
LeftArm	LeftShoulder
LeftForeArm	LeftArm
LeftHand	LeftForeArm
LeftHandThumb1	LeftHand
LeftHandThumb2	LeftHandThumb1
LeftHandThumb3	LeftHandThumb2
LeftHandThumb4	LeftHandThumb3
LeftHandIndex1	LeftHand
LeftHandIndex2	LeftHandIndex1
LeftHandIndex3	LeftHandIndex2
LeftHandIndex4	LeftHandIndex3
LeftHandMiddle1	LeftHand
LeftHandMiddle2	LeftHandMiddle1
LeftHandMiddle3	LeftHandMiddle2
LeftHandMiddle4	LeftHandMiddle3
LeftHandRing1	LeftHand
LeftHandRing2	LeftHandRing1
LeftHandRing3	LeftHandRing2
LeftHandRing4	LeftHandRing3
LeftHandPinky1	LeftHand
LeftHandPinky2	LeftHandPinky1
LeftHandPinky3	LeftHandPinky2
LeftHandPinky4	LeftHandPinky3
RightShoulder	Spine2
RightArm	RightShoulder
RightForeArm	RightArm
RightHand	RightForeArm
RightHandPinky1	RightHand
RightHandPinky2	RightHandPinky1
RightHandPinky3	RightHandPinky2
RightHandPinky4	RightHandPinky3
RightHandRing1	RightHand
RightHandRing2	RightHandRing1
RightHandRing3	RightHandRing2
RightHandRing4	RightHandRing3
RightHandMiddle1	RightHand
RightHandMiddle2	RightHandMiddle1
RightHandMiddle3	RightHandMiddle2
RightHandMiddle4	RightHandMiddle3
RightHandIndex1	RightHand
RightHandIndex2	RightHandIndex1
RightHandIndex3	RightHandIndex2
RightHandIndex4	RightHandIndex3
RightHandThumb1	RightHand
RightHandThumb2	RightHandThumb1
RightHandThumb3	RightHandThumb2
RightHandThumb4	RightHandThumb3
LeftUpLeg	Hips
LeftLeg	LeftUpLeg
LeftFoot	LeftLeg
LeftToeBase	LeftFoot
RightUpLeg	Hips
RightLeg	RightUpLeg
RightFoot	RightLeg
RightToeBase	RightFoot
[BasePosition]
Hips	0	0	0	0	0	0	1
Spine	0	0	0	0	0	0	1
Spine1	0	0	0	0	0	0	1
Spine2	0	0	0	0	0	0	1
Neck	0	0	0	0	0	0	1
Head	0	0	0	0	0	0	1
LeftEye	0	0	0	0	0	0	1
RightEye	0	0	0	0	0	0	1
LeftShoulder	0	0	0	0	0	0	1
LeftArm	0	0	0	0	0	0	1
LeftForeArm	0	0	0	0	0	0	1
LeftHand	0	0	0	0	0	0	1
LeftHandThumb1	0	0	0	0	0	0	1
LeftHandThumb2	0	0	0	0	0	0	1
LeftHandThumb3	0	0	0	0	0	0	1
LeftHandThumb4	0	0	0	0	0	0	1
LeftHandIndex1	0	0	0	0	0	0	1
LeftHandIndex2	0	0	0	0	0	0	1
LeftHandIndex3	0	0	0	0	0	0	1
LeftHandIndex4	0	0	0	0	0	0	1
LeftHandMiddle1	0	0	0	0	0	0	1
LeftHandMiddle2	0	0	0	0	0	0	1
LeftHandMiddle3	0	0	0	0	0	0	1
LeftHandMiddle4	0	0	0	0	0	0	1
LeftHandRing1	0	0	0	0	0	0	1
LeftHandRing2	0	0	0	0	0	0	1
LeftHandRing3	0	0	0	0	0	0	1
LeftHandRing4	0	0	0	0	0	0	1
LeftHandPinky1	0	0	0	0	0	0	1
LeftHandPinky2	0	0	0	0	0	0	1
LeftHandPinky3	0	0	0	0	0	0	1
LeftHandPinky4	0	0	0	0	0	0	1
RightShoulder	0	0	0	0	0	0	1
RightArm	0	0	0	0	0	0	1
RightForeArm	0	0	0	0	0	0	1
RightHand	0	0	0	0	0	0	1
RightHandPinky1	0	0	0	0	0	0	1
RightHandPinky2	0	0	0	0	0	0	1
RightHandPinky3	0	0	0	0	0	0	1
RightHandPinky4	0	0	0	0	0	0	1
RightHandRing1	0	0	0	0	0	0	1
RightHandRing2	0	0	0	0	0	0	1
RightHandRing3	0	0	0	0	0	0	1
RightHandRing4	0	0	0	0	0	0	1
RightHandMiddle1	0	0	0	0	0	0	1
RightHandMiddle2	0	0	0	0	0	0	1
RightHandMiddle3	0	0	0	0	0	0	1
RightHandMiddle4	0	0	0	0	0	0	1
RightHandIndex1	0	0	0	0	0	0	1
RightHandIndex2	0	0	0	0	0	0	1
RightHandIndex3	0	0	0	0	0	0	1
RightHandIndex4	0	0	0	0	0	0	1
RightHandThumb1	0	0	0	0	0	0	1
RightHandThumb2	0	0	0	0	0	0	1
RightHandThumb3	0	0	0	0	0	0	1
RightHandThumb4	0	0	0	0	0	0	1
LeftUpLeg	0	0	0	0	0	0	1
LeftLeg	0	0	0	0	0	0	1
LeftFoot	0	0	0	0	0	0	1
LeftToeBase	0	0	0	0	0	0	1
RightUpLeg	0	0	0	0	0	0	1
RightLeg	0	0	0	0	0	0	1
RightFoot	0	0	0	0	0	0	1
RightToeBase	0	0	0	0	0	0	1
[Hips]
62	8.26964283	1033.05957	5.351914883	-2.952604771	-5.338548183	-3.602808952	1.0
63	7.05436945	1033.514648	7.891343117	-3.106816292	-5.638506889	-3.480626106	1.0
64	5.455672264	1033.653076	10.17411041	-3.228524923	-5.738540173	-3.428725958	1.0
65	3.517141819	1033.771729	12.28027821	-3.326526403	-5.658045769	-3.422156811	1.0
[Spine]
62	0	101.8159943	1.315000057	3.549549341	2.081225634	2.92515564	1.0
63	0	101.8159943	1.315000057	3.486803532	1.933735609	2.914744854	1.0
64	0	101.8159943	1.315000057	3.470282316	1.753695965	2.905148029	1.0
65	0	101.8159943	1.315000057	3.443604469	1.561757445	2.876600504	1.0
[Spine1]
62	0	100.8349991	-10.00800037	1.208016157	0.532047987	1.584200501	1.0
63	0	100.8349991	-10.00800037	1.195563674	0.4923739135	1.586327434	1.0
64	0	100.8349991	-10.00800037	1.19322443	0.4362054467	1.587098002	1.0
65	0	100.8349991	-10.00800037	1.184880376	0.3714742362	1.578818083	1.0
[Spine2]
62	0	91	-13.73399925	1.182490587	0.5552578568	1.585603237	1.0
63	0	91	-13.73399925	1.170268893	0.5153202415	1.587931275	1.0
64	0	91	-13.73399925	1.168043017	0.4590948224	1.589117527	1.0
65	0	91	-13.73399925	1.1597054	0.3943224847	1.58145225	1.0
[Neck]
62	0	166.7169952	-25.16200066	5.935106754	-0.3357502818	0.4950645864	1.0
63	0	166.7169952	-25.16200066	5.801105976	-0.2593663931	0.4818839729	1.0
64	0	166.7169952	-25.16200066	5.684107304	-0.1989532262	0.4641842544	1.0
65	0	166.7169952	-25.16200066	5.624154091	-0.1545538157	0.4528832436	1.0
[Head]
62	0	96.17900085	16.84999847	-7.030304432	0.6076601744	0.1423770636	1.0
63	0	96.17900085	16.84999847	-7.104840279	0.9833692312	-0.1672425866	1.0
64	0	96.17900085	16.84999847	-7.308254242	1.215224266	-0.3399629891	1.0
65	0	96.17900085	16.84999847	-7.497662067	1.327774167	-0.3612499237	1.0
[LeftEye]
62	30.6760006	64.09500122	92.83599854	0	0	0	1.0
63	30.6760006	64.09500122	92.83599854	0	0	0	1.0
64	30.6760006	64.09500122	92.83599854	0	0	0	1.0
65	30.6760006	64.09500122	92.83599854	0	0	0	1.0
[RightEye]
62	-30.6760006	64.09500122	92.83499908	0	0	0	1.0
63	-30.6760006	64.09500122	92.83499908	0	0	0	1.0
64	-30.6760006	64.09500122	92.83499908	0	0	0	1.0
65	-30.6760006	64.09500122	92.83499908	0	0	0	1.0
[LeftShoulder]
62	45.70400238	109.4599991	-26.28000069	4.856510639	-17.02539635	-12.80585289	1.0
63	45.70400238	109.4599991	-26.28000069	4.881266117	-16.91465378	-12.99457932	1.0
64	45.70400238	109.4599991	-26.28000069	4.902470589	-16.84653664	-13.14667988	1.0
65	45.70400238	109.4599991	-26.28000069	4.90989542	-16.81071281	-13.21422195	1.0
[LeftArm]
62	105.923996	-5.24600029	-22.32099915	22.51893234	-4.013427734	-68.13030243	1.0
63	105.923996	-5.24600029	-22.32099915	22.02965546	-3.767093658	-68.8839035	1.0
64	105.923996	-5.24600029	-22.32099915	21.36752129	-3.542177677	-69.59188843	1.0
65	105.923996	-5.24600029	-22.32099915	20.6862278	-3.320664167	-70.29269409	1.0
[LeftForeArm]
62	278.414978	-0.0009999999311	0	1.835746559e-07	-7.353140831	-0.0002038179518	1.0
63	278.414978	-0.0009999999311	0	-8.484973478e-06	-5.41882658	-0.0002071096096	1.0
64	278.414978	-0.0009999999311	0	-1.035493096e-05	-3.91797471	-0.0002031906042	1.0
65	278.414978	-0.0009999999311	0	-2.097860715e-06	-2.665694952	-0.0001971644233	1.0
[LeftHand]
62	283.2879944	0	0	-31.870327	-3.827106714	-3.502022743	1.0
63	283.2879944	0	0	-32.04011154	-3.944711685	-4.354415417	1.0
64	283.2879944	0	0	-32.17416	-4.14400816	-4.669205666	1.0
65	283.2879944	0	0	-32.47657013	-4.35696888	-4.607688427	1.0
[LeftHandThumb1]
62	24.6609993	-15.75	26.8239994	-0.4889853299	2.201392412	4.818558693	1.0
63	24.6609993	-15.75	26.8239994	-0.4889859259	2.201390743	4.818552494	1.0
64	24.6609993	-15.75	26.8239994	-0.488987267	2.20139122	4.818539619	1.0
65	24.6609993	-15.75	26.8239994	-0.4889877439	2.201390982	4.818538666	1.0
[LeftHandThumb2]
62	32.29800034	-18.64699936	18.64699936	20.04686356	19.31868553	23.21721077	1.0
63	32.29800034	-18.64699936	18.64699936	20.02464485	19.52808189	23.20753098	1.0
64	32.29800034	-18.64699936	18.64699936	19.98065567	19.77905083	23.22303963	1.0
65	32.29800034	-18.64699936	18.64699936	19.91609383	19.9322567	23.25286293	1.0
[LeftHandThumb3]
62	26.52600098	-15.31499958	15.31499958	-13.1637373	5.426430702	7.950457096	1.0
63	26.52600098	-15.31499958	15.31499958	-13.15681839	5.466436863	7.945007324	1.0
64	26.52600098	-15.31499958	15.31499958	-13.15086269	5.508065224	7.952409744	1.0
65	26.52600098	-15.31499958	15.31499958	-13.14639187	5.542146206	7.962692261	1.0
[LeftHandThumb4]
62	19.54599953	-11.28499985	11.28499985	0	0	0	1.0
63	19.54599953	-11.28499985	11.28499985	0	0	0	1.0
64	19.54599953	-11.28499985	11.28499985	0	0	0	1.0
65	19.54599953	-11.28499985	11.28499985	0	0	0	1.0
[LeftHandIndex1]
62	91.09299469	-5.170999527	22.60099792	0.1242319569	-1.075962305	-7.379685879	1.0
63	91.09299469	-5.170999527	22.60099792	0.1360144764	-1.000387907	-7.565588951	1.0
64	91.09299469	-5.170999527	22.60099792	0.1402292252	-0.9579402208	-7.696282864	1.0
65	91.09299469	-5.170999527	22.60099792	0.1422474831	-0.9577994943	-7.674808025	1.0
[LeftHandIndex2]
62	36.76399994	0	0	-0.2666509151	1.745000482	-17.37469292	1.0
63	36.76399994	0	0	-0.2668576837	1.74565208	-17.3814106	1.0
64	36.76399994	0	0	-0.2666876614	1.745114923	-17.37588882	1.0
65	36.76399994	0	0	-0.2664714456	1.744435549	-17.36888504	1.0
[LeftHandIndex3]
62	28.83100128	0	0	-0.05740237609	0.8171595335	-8.036608696	1.0
63	28.83100128	0	0	-0.05749672279	0.8178401589	-8.043298721	1.0
64	28.83100128	0	0	-0.05741796643	0.8172823787	-8.037777901	1.0
65	28.83100128	0	0	-0.05731873587	0.816573441	-8.030792236	1.0
[LeftHandIndex4]
62	23.92700005	0	0	0	0	0	1.0
63	23.92700005	0	0	0	0	0	1.0
64	23.92700005	0	0	0	0	0	1.0
65	23.92700005	0	0	0	0	0	1.0
[LeftHandMiddle1]
62	95.33399963	0	0	-0.8202828169	3.035345793	-16.08948898	1.0
63	95.33399963	0	0	-0.8180961013	2.863740444	-16.06085968	1.0
64	95.33399963	0	0	-0.8146135807	2.728330135	-16.01284981	1.0
65	95.33399963	0	0	-0.8055463433	2.620687485	-15.88189125	1.0
[LeftHandMiddle2]
62	36.98199844	0	0	-0.2684726119	1.75082159	-17.43453979	1.0
63	36.98199844	0	0	-0.2683986425	1.750585914	-17.43213463	1.0
64	36.98199844	0	0	-0.2680212855	1.749382138	-17.41975594	1.0
65	36.98199844	0	0	-0.2676228285	1.748112679	-17.40668106	1.0
[LeftHandMiddle3]
62	29.50900078	0	0	-0.3000794053	1.848407626	-18.44094467	1.0
63	29.50900078	0	0	-0.3000136614	1.848206878	-18.43886185	1.0
64	29.50900078	0	0	-0.2996290028	1.847052455	-18.42691994	1.0
65	29.50900078	0	0	-0.2992200255	1.845830202	-18.4142704	1.0
[LeftHandMiddle4]
62	28.3390007	0	0	0	0	0	1.0
63	28.3390007	0	0	0	0	0	1.0
64	28.3390007	0	0	0	0	0	1.0
65	28.3390007	0	0	0	0	0	1.0
[LeftHandRing1]
62	91.04499817	-0.4390000105	-18.65100098	-1.15320313	3.325061083	-20.74555397	1.0
63	91.04499817	-0.4390000105	-18.65100098	-1.167665243	3.357989311	-20.93770599	1.0
64	91.04499817	-0.4390000105	-18.65100098	-1.181020498	3.392787457	-21.11483765	1.0
65	91.04499817	-0.4390000105	-18.65100098	-1.185858846	3.419285059	-21.17852402	1.0
[LeftHandRing2]
62	31.54000092	0	0	-0.3852399886	2.086365223	-20.92123795	1.0
63	31.54000092	0	0	-0.3853015006	2.08652091	-20.92286491	1.0
64	31.54000092	0	0	-0.3853530586	2.086659431	-20.92432022	1.0
65	31.54000092	0	0	-0.3852492273	2.08639431	-20.92155266	1.0
[LeftHandRing3]
62	29.37700081	0	0	-0.2820806503	1.793562889	-17.87462997	1.0
63	29.37700081	0	0	-0.2821288705	1.793712497	-17.8761692	1.0
64	29.37700081	0	0	-0.2821737528	1.793845057	-17.87751198	1.0
65	29.37700081	0	0	-0.2820856571	1.793566465	-17.87462807	1.0
[LeftHandRing4]
62	26.47500038	0	0	0	0	0	1.0
63	26.47500038	0	0	0	0	0	1.0
64	26.47500038	0	0	0	0	0	1.0
65	26.47500038	0	0	0	0	0	1.0
[LeftHandPinky1]
62	80.77799988	-4.887000084	-38.06099701	-1.70922327	5.610982418	-27.19291496	1.0
63	80.77799988	-4.887000084	-38.06099701	-1.71146667	5.500859737	-27.21187401	1.0
64	80.77799988	-4.887000084	-38.06099701	-1.71265924	5.418866158	-27.21995354	1.0
65	80.77799988	-4.887000084	-38.06099701	-1.710753679	5.380488396	-27.1942997	1.0
[LeftHandPinky2]
62	36	0	0	-0.2682301402	1.750033379	-17.42647362	1.0
63	36	0	0	-0.2683010697	1.750265718	-17.4288578	1.0
64	36	0	0	-0.2685011029	1.750911355	-17.43548203	1.0
65	36	0	0	-0.2683955431	1.750579	-17.43205261	1.0
[LeftHandPinky3]
62	21.14200211	0	0	-0.2414296716	1.662292123	-16.52644539	1.0
63	21.14200211	0	0	-0.2414990515	1.662525892	-16.52883148	1.0
64	21.14200211	0	0	-0.2416907102	1.663174748	-16.5354538	1.0
65	21.14200211	0	0	-0.2415914237	1.662840009	-16.53201866	1.0
[LeftHandPinky4]
62	19.75699997	0	0	0	0	0	1.0
63	19.75699997	0	0	0	0	0	1.0
64	19.75699997	0	0	0	0	0	1.0
65	19.75699997	0	0	0	0	0	1.0
[RightShoulder]
62	-45.70000076	109.4620056	-26.28000069	5.532675266	15.49740124	16.80583	1.0
63	-45.70000076	109.4620056	-26.28000069	5.434562206	15.2130909	16.47624588	1.0
64	-45.70000076	109.4620056	-26.28000069	5.33800602	14.94039822	16.12512398	1.0
65	-45.70000076	109.4620056	-26.28000069	5.254069328	14.70933247	15.80319405	1.0
[RightArm]
62	-105.9280014	-5.248000145	-22.32099915	37.26476669	10.48225594	60.07094574	1.0
63	-105.9280014	-5.248000145	-22.32099915	34.82543182	8.722760201	60.60974503	1.0
64	-105.9280014	-5.248000145	-22.32099915	32.88183594	6.743907928	61.16303635	1.0
65	-105.9280014	-5.248000145	-22.32099915	31.41281319	4.550344944	61.82397079	1.0
[RightForeArm]
62	-278.414978	0	0	-5.009222605e-06	16.4549427	-6.932015367e-06	1.0
63	-278.414978	0	0	1.064052412e-06	12.62606907	2.345047278e-06	1.0
64	-278.414978	0	0	2.285441269e-06	9.829147339	3.879978067e-06	1.0
65	-278.414978	0	0	-1.882804327e-06	7.940442562	-4.898199222e-06	1.0
[RightHand]
62	-283.2879944	0	0.0009999999311	-16.11314201	11.72286224	8.604114532	1.0
63	-283.2879944	0	0.0009999999311	-18.25921249	8.998958588	7.614889145	1.0
64	-283.2879944	0	0.0009999999311	-19.73984528	6.450727463	7.112789631	1.0
65	-283.2879944	0	0.0009999999311	-20.31189919	4.079046249	6.828631878	1.0
[RightHandPinky1]
62	-80.76699829	-4.885000229	-38.06000137	-3.241442442	-5.161447048	45.98547745	1.0
63	-80.76699829	-4.885000229	-38.06000137	-2.779054642	-5.00235796	41.07545471	1.0
64	-80.76699829	-4.885000229	-38.06000137	-2.322374821	-4.903250217	35.93774033	1.0
65	-80.76699829	-4.885000229	-38.06000137	-1.89304316	-4.816217899	30.99111557	1.0
[RightHandPinky2]
62	-36	0	0.0009999999311	-0.9112793207	-2.760498285	36.55565262	1.0
63	-36	0	0.0009999999311	-0.6877672076	-2.429162502	31.61006927	1.0
64	-36	0	0.0009999999311	-0.4902564883	-2.074803591	26.59039879	1.0
65	-36	0	0.0009999999311	-0.3318308294	-1.722146988	21.8099556	1.0
[RightHandPinky3]
62	-21.14200211	0	0	-0.8691983819	-2.702845812	35.65304947	1.0
63	-21.14200211	0	0	-0.6508078575	-2.368070364	30.70739174	1.0
64	-21.14200211	0	0	-0.4587951899	-2.01071763	25.68813515	1.0
65	-21.14200211	0	0	-0.3058377802	-1.655682087	20.90821838	1.0
[RightHandPinky4]
62	-19.75699997	0	0	0	0	0	1.0
63	-19.75699997	0	0	0	0	0	1.0
64	-19.75699997	0	0	0	0	0	1.0
65	-19.75699997	0	0	0	0	0	1.0
[RightHandRing1]
62	-91.03599548	-0.4390000105	-18.65100098	-2.503247738	-3.671523571	39.90592957	1.0
63	-91.03599548	-0.4390000105	-18.65100098	-2.109516621	-3.455865383	35.05131912	1.0
64	-91.03599548	-0.4390000105	-18.65100098	-1.718302727	-3.246685266	29.99217796	1.0
65	-91.03599548	-0.4390000105	-18.65100098	-1.358908892	-3.056323528	25.06391335	1.0
[RightHandRing2]
62	-31.54000092	0	0	-1.08403933	-2.979286671	39.98535919	1.0
63	-31.54000092	0	0	-0.8425409198	-2.664342403	35.07328415	1.0
64	-31.54000092	0	0	-0.625005424	-2.324581861	30.08013535	1.0
65	-31.54000092	0	0	-0.4457368851	-1.983314037	25.31218719	1.0
[RightHandRing3]
62	-29.37700081	0	0	-0.9299734831	-2.785549402	36.92248535	1.0
63	-29.37700081	0	0	-0.7057731748	-2.458273888	32.01360703	1.0
64	-29.37700081	0	0	-0.5067949295	-2.107499123	27.0236721	1.0
65	-29.37700081	0	0	-0.3460513949	-1.757257819	22.25852013	1.0
[RightHandRing4]
62	-26.47500038	0	0	0	0	0	1.0
63	-26.47500038	0	0	0	0	0	1.0
64	-26.47500038	0	0	0	0	0	1.0
65	-26.47500038	0	0	0	0	0	1.0
[RightHandMiddle1]
62	-95.32500458	0	0	-2.038717031	-3.257019281	34.16607285	1.0
63	-95.32500458	0	0	-1.678406715	-2.953061819	29.46853447	1.0
64	-95.32500458	0	0	-1.315047264	-2.67371273	24.44804764	1.0
65	-95.32500458	0	0	-0.9829112291	-2.395893335	19.52503777	1.0
[RightHandMiddle2]
62	-36.98199844	0	0	-0.9102752805	-2.75911212	36.51483154	1.0
63	-36.98199844	0	0	-0.6872522235	-2.428406	31.57901382	1.0
64	-36.98199844	0	0	-0.4907391071	-2.075848103	26.58485031	1.0
65	-36.98199844	0	0	-0.3327682018	-1.724402785	21.82042885	1.0
[RightHandMiddle3]
62	-29.50900078	0	0	-0.9589901567	-2.825685024	37.51506424	1.0
63	-29.50900078	0	0	-0.7303245664	-2.499078512	32.5813942	1.0
64	-29.50900078	0	0	-0.5277682543	-2.150206089	27.58964539	1.0
65	-29.50900078	0	0	-0.3637396395	-1.801804066	22.82762146	1.0
[RightHandMiddle4]
62	-28.3390007	0	0.0009999999311	0	0	0	1.0
63	-28.3390007	0	0.0009999999311	0	0	0	1.0
64	-28.3390007	0	0.0009999999311	0	0	0	1.0
65	-28.3390007	0	0.0009999999311	0	0	0	1.0
[RightHandIndex1]
62	-91.08300018	-5.167999744	22.60099792	0.1405757368	0.01385579072	26.22183037	1.0
63	-91.08300018	-5.167999744	22.60099792	0.1311373115	0.4034028947	21.42606926	1.0
64	-91.08300018	-5.167999744	22.60099792	0.1357845515	0.7255835533	16.44891548	1.0
65	-91.08300018	-5.167999744	22.60099792	0.1572499722	0.9985453486	11.53134251	1.0
[RightHandIndex2]
62	-36.76399994	0	0	-0.9073855877	-2.755236387	36.45487976	1.0
63	-36.76399994	0	0	-0.6901810765	-2.43354702	31.65228271	1.0
64	-36.76399994	0	0	-0.4947906137	-2.083472729	26.69182968	1.0
65	-36.76399994	0	0	-0.3338346481	-1.726990938	21.85499382	1.0
[RightHandIndex3]
62	-28.83100128	0	0	-0.50870049	-2.112029552	27.08672523	1.0
63	-28.83100128	0	0	-0.3468668461	-1.759337187	22.28858757	1.0
64	-28.83100128	0	0	-0.2111226469	-1.382164598	17.3320961	1.0
65	-28.83100128	0	0	-0.1103466898	-1.004252911	12.49847317	1.0
[RightHandIndex4]
62	-23.92700005	0	0	0	0	0	1.0
63	-23.92700005	0	0	0	0	0	1.0
64	-23.92700005	0	0	0	0	0	1.0
65	-23.92700005	0	0	0	0	0	1.0
[RightHandThumb1]
62	-24.64799881	-15.72700024	26.82600021	-1.658462048	-0.2891432345	-4.221328259	1.0
63	-24.64799881	-15.72700024	26.82600021	-1.658457398	-0.28915295	-4.221335888	1.0
64	-24.64799881	-15.72700024	26.82600021	-1.658463717	-0.289146632	-4.221327782	1.0
65	-24.64799881	-15.72700024	26.82600021	-1.658468366	-0.2891402543	-4.221321106	1.0
[RightHandThumb2]
62	-32.29800034	-18.64699936	18.64699936	22.48169518	-24.45981598	-24.2317028	1.0
63	-32.29800034	-18.64699936	18.64699936	22.44513893	-24.38565636	-24.20483208	1.0
64	-32.29800034	-18.64699936	18.64699936	22.35075188	-24.1730175	-24.17437935	1.0
65	-32.29800034	-18.64699936	18.64699936	22.27594185	-23.985466	-24.19047928	1.0
[RightHandThumb3]
62	-26.52600098	-15.31399918	15.31399918	-14.49415493	-6.70852375	-11.38484478	1.0
63	-26.52600098	-15.31399918	15.31399918	-14.49371052	-6.708936691	-11.38127899	1.0
64	-26.52600098	-15.31399918	15.31399918	-14.49015522	-6.715815067	-11.37149715	1.0
65	-26.52600098	-15.31399918	15.31399918	-14.48473263	-6.72765255	-11.36369228	1.0
[RightHandThumb4]
62	-19.54599953	-11.28499985	11.28499985	0	0	0	1.0
63	-19.54599953	-11.28499985	11.28499985	0	0	0	1.0
64	-19.54599953	-11.28499985	11.28499985	0	0	0	1.0
65	-19.54599953	-11.28499985	11.28499985	0	0	0	1.0
[LeftUpLeg]
62	82.07800293	-67.51699829	-15.99599934	-9.922642708	16.00188446	7.306655884	1.0
63	82.07800293	-67.51699829	-15.99599934	-9.318810463	15.94746494	7.303390026	1.0
64	82.07800293	-67.51699829	-15.99599934	-8.939067841	16.00468636	7.399990082	1.0
65	82.07800293	-67.51699829	-15.99599934	-8.64209938	16.13607597	7.571568966	1.0
[LeftLeg]
62	0	-443.7049866	2.845999956	13.16101646	1.251597762	4.419408321	1.0
63	0	-443.7049866	2.845999956	12.76849747	1.587916493	4.633207321	1.0
64	0	-443.7049866	2.845999956	12.63207912	1.61475122	4.690441132	1.0
65	0	-443.7049866	2.845999956	12.51071739	1.400976062	4.611568451	1.0
[LeftFoot]
62	0	-444.2789917	-29.8219986	1.283245921	0.6820608974	-6.499827862	1.0
63	0	-444.2789917	-29.8219986	1.307994127	0.6729136705	-6.715968609	1.0
64	0	-444.2789917	-29.8219986	1.236836433	0.6647392511	-6.879594803	1.0
65	0	-444.2789917	-29.8219986	1.181616545	0.6637115479	-6.99421072	1.0
[LeftToeBase]
62	0	-87.28699493	107.1060028	-4.92852211	2.405058694e-06	6.610025416e-09	1.0
63	0	-87.28699493	107.1060028	-4.928524494	2.799972435e-06	-1.555495032e-06	1.0
64	0	-87.28699493	107.1060028	-4.928525925	1.242920689e-06	-1.435601575e-06	1.0
65	0	-87.28699493	107.1060028	-4.928525448	-1.052660195e-06	9.576107232e-07	1.0
[RightUpLeg]
62	-82.07800293	-67.51699829	-15.99599934	-1.592812657	-10.0841217	3.555804253	1.0
63	-82.07800293	-67.51699829	-15.99599934	-1.107373834	-10.18888664	3.362198353	1.0
64	-82.07800293	-67.51699829	-15.99599934	-0.7680167556	-10.24824429	3.316523314	1.0
65	-82.07800293	-67.51699829	-15.99599934	-0.4135973752	-10.30913258	3.370395184	1.0
[RightLeg]
62	0	-443.7049866	2.861999989	8.947845459	-9.37701416	-4.900265694	1.0
63	0	-443.7049866	2.861999989	8.622795105	-9.195061684	-4.704656124	1.0
64	0	-443.7049866	2.861999989	8.512221336	-9.050787926	-4.614541531	1.0
65	0	-443.7049866	2.861999989	8.3235569	-9.09377861	-4.582103729	1.0
[RightFoot]
62	0	-444.2770081	-29.83799934	-3.456819534	-1.597414851	3.601890087	1.0
63	0	-444.2770081	-29.83799934	-3.480694056	-1.418459058	3.503211021	1.0
64	0	-444.2770081	-29.83799934	-3.616523981	-1.427756429	3.437363863	1.0
65	0	-444.2770081	-29.83799934	-3.71517849	-1.434616566	3.372208357	1.0
[RightToeBase]
62	0	-87.28699493	107.1060028	-7.282876015	-3.808641395e-06	6.214924611e-07	1.0
63	0	-87.28699493	107.1060028	-7.282875061	-2.819686188e-06	2.444801339e-07	1.0
64	0	-87.28699493	107.1060028	-7.282874584	-3.399737807e-06	-3.204003463e-07	1.0
65	0	-87.28699493	107.1060028	-7.282876015	-2.257485221e-06	-8.12241467e-07	1.0
[EndOfFile]
